<svg height="511pt" viewBox="0 -6 511.99953 511" width="511pt" xmlns="http://www.w3.org/2000/svg"><path d="m477.332031 285.613281c-7.34375-4.40625-14.9375-8.964843-22.855469-13.988281l-4.699218-2.988281.09375 5.570312c.070312 4.171875.164062 9.890625-2.0625 14.808594-3.066406 6.75-9.96875 10.984375-15.035156 14.089844l-88.710938 54.292969c-5.234375 3.203124-11.746094 7.1875-19 7.1875-.546875 0-1.042969-.019532-1.53125-.0625-5.703125-.449219-10.859375-3.582032-15.058594-6.128907-6.496094-3.957031-13.089844-8.035156-19.464844-11.980469l-1.984374-1.226562c-13.328126-8.261719-28.433594-17.625-43.34375-26.191406-7.925782-4.554688-11.539063-6.976563-14.050782-16.628906-2.050781-7.851563-4.027344-15.882813-5.9375-23.644532l-.265625-1.082031c-.621093-2.523437-1.238281-5.046875-1.871093-7.570313l-.929688-3.714843-92.617188 49.011719 172.546876 101.6875c.707031.417968 1.089843 1.207031.976562 2.003906-.113281.804687-.695312 1.457031-1.472656 1.667968-18.507813 4.882813-37.691406 7.359376-57.023438 7.359376-15.886718 0-31.71875-1.679688-47.058594-4.992188-24.398437-5.273438-41.167968-14.300781-51.261718-27.601562-10.484375-13.8125-13.351563-32.003907-15.21875-47.976563l-.28125-2.394531-2.402344-.238282c-9.929688-.984374-19.933594-2.792968-29.742188-5.378906l-1.863281-.488281-1.222656 1.492187c-.117187.148438-.222656.25-.332031.324219l-50.679688 35.628907 3.238282 2.484374c33.894531 26.015626 70.140624 49.585938 105.25 72.414063 17.039062 11.082031 34.65625 22.535156 52.007812 34.289063 4.023438 2.71875 8.179688 5.527343 12.894531 6.214843.753907.109375 1.535157.164063 2.316407.164063 6.0625 0 11.964843-3.210938 17.976562-6.785156 36.25-21.535157 72.542969-44.621094 107.871094-68.613282 8.339844-5.660156 16.835937-11.359375 25.054687-16.871094l1.496094-1.003906c25.628906-17.175781 52.132813-34.9375 77.421875-53.894531 1.382812-1.042969 2.769531-2.089844 4.179688-3.140625 16.085937-12.136719 32.136718-24.6875 47.710937-37.3125l3.242187-2.625-3.523437-2.238281c-7.839844-4.976563-15.394531-9.507813-22.777344-13.929688zm0 0" fill="#fff"/><path d="m313.753906 85.699219c-29.03125 12.648437-58.113281 26.101562-86.429687 39.984375l-2 .980468.359375 2.195313c.300781 1.839844.320312 3.6875.339844 5.511719l.511718 60.714844 87.660156-44.351563 2.832032-1.386719-1.578125-2.742187 2.707031-62.824219zm0 0" fill="#fff"/><path d="m318.570312 74.039062-119.519531-42.425781-100.132812 50.230469 7.875 1.957031c36.457031 9.046875 72.574219 20.464844 107.347656 33.925781 2.269531.875 5.378906 2.066407 7.78125 4.128907l1.496094 1.285156 1.777343-.867187c29.9375-14.671876 60.699219-28.863282 91.429688-42.183594l1.726562-.75zm0 0" fill="#fff"/><path d="m327.515625 360.765625 3.941406-1.367187c3.558594-1.234376 7.160157-3.359376 10.539063-5.425782l88.691406-54.28125c5.980469-3.667968 11.121094-7.128906 13.476562-12.332031 1.871094-4.140625 1.78125-8.9375 1.695313-13.582031l-1.28125-68.300782-118.148437 49.988282zm0 0" fill="#f9d889"/><path d="m325.429688 251.726562c.1875-.199218.40625-.351562.660156-.457031l115.375-48.816406-121.449219-50.183594-96.246094 48.691407c-1.582031.808593-3.257812 1.691406-4.789062 2.664062l-4.808594 3.066406 109.824219 46.5625zm0 0" fill="#f9d889"/><path d="m213.714844 222.042969 10.539062 42.269531c1.027344 4.125 2.046875 8.25 3.058594 12.378906 1.769531 7.207032 3.976562 16.175782 6.1875 24.667969 2.195312 8.441406 4.914062 10 12.167969 14.167969 14.484375 8.3125 28.933593 17.257812 42.90625 25.910156l2.429687 1.507812c6.402344 3.964844 13.023438 8.0625 19.546875 12.03125 2.523438 1.535157 5.660157 3.445313 8.941407 4.582032l4.023437 1.382812-1.074219-104-110.296875-46.769531.296875 4.835937c.136719 2.28125.695313 4.734376 1.273438 7.035157zm0 0" fill="#f9d889"/><path d="m39.589844 267.820312-.957032-.589843c-6.679687-4.171875-14.25-8.898438-21.628906-9.304688-.230468-.011719-.445312-.019531-.667968-.019531-2.695313 0-4.78125.84375-6.375 2.582031-2.453126 2.683594-3.46875 7.429688-2.714844 12.699219 1.488281 10.214844 9.707031 18.28125 17.550781 24.820312 29.84375 24.878907 67.625 40.238282 106.382813 43.246094.953124.070313 1.726562.816406 1.835937 1.792969 1.894531 16.753906 4.035156 35.738281 14.890625 50.027344 9.488281 12.503906 25.488281 21.039062 48.914062 26.101562 15.089844 3.253907 30.636719 4.90625 46.210938 4.90625 14.722656 0 29.464844-1.476562 43.816406-4.390625l7.664063-1.554687-251.191407-148.03125c-1.226562-.730469-2.453124-1.488281-3.730468-2.285157zm0 0" fill="#d8deec"/><g fill="#ed6d66"><path d="m319.882812 83.042969-1.726562.746093-2.824219 65.59375 4.046875-1.226562c.191406-.054688.382813-.082031.574219-.082031.253906 0 .507813.046875.742187.144531l24.332032 10.050781 1.414062-1.625c.246094-.28125.523438-.476562.820313-.585937 5.925781-2.121094 10.46875-3.550782 14.859375-4.933594 3.542968-1.117188 7.203125-2.269531 11.585937-3.785156l1.894531-.652344 5.472657-88.988281-4.394531 1.75c-18.863282 7.519531-37.972657 15.457031-56.796876 23.59375zm0 0"/><path d="m199.046875 31.613281 119.527344 42.449219-.203125 5.269531 4.367187-1.878906c16.371094-7.035156 33.199219-14.011719 50.015625-20.738281l6.992188-2.796875-102.605469-40.726563c-6.710937-2.667968-14.316406-5.691406-21.929687-5.691406-.574219 0-1.144532.019531-1.714844.054688-7.433594.46875-14.320313 3.929687-20.976563 7.273437zm0 0"/><path d="m221.984375 197.390625 4.542969-2.3125-.503906-60.710937c-.011719-1.269532-.046876-2.371094-.105469-3.359376l-.269531-4.511718-4.050782 2c-15.570312 7.683594-30.984375 15.519531-45.824218 23.292968l-1.589844.832032-1.097656 104.480468 3.632812-.738281c12.601562-2.550781 24.59375-11.105469 34.84375-18.921875l1.570312-1.199218-3.300781-13.246094c-1.078125-4.328125-2.417969-9.710938-.378906-14.714844 2.34375-5.742188 8.222656-8.714844 12.53125-10.890625zm0 0"/><path d="m173.945312 148.234375c14.734376-7.71875 29.910157-15.433594 45.105469-22.9375l5.144531-2.539063-5.019531-2.777343c-1.488281-.820313-3.085937-1.496094-5.039062-2.261719-37.066407-14.34375-75.492188-26.316406-114.203125-35.589844l-1.066406-.253906-54.523438 27.351562 128.507812 39.582032zm0 0"/><path d="m44.257812 124.433594c1.902344 3.113281 3.894532 6.167968 5.957032 9.167968l-6.257813-9.066406 6.472657 72.496094h-.003907l1.332031 14.882812 90.375 37.929688c7.605469 3.1875 15.464844 6.488281 23.726563 7.191406l3.21875.273438.15625-14.8125v-.246094l.929687-87.746094 2.003907-1.726562-129.246094-39.8125.96875 10.867187zm40.46875 47.609375-1.222656-1.09375 1.234375 1.085937-14.984375 10.917969zm-31.140624-33.710938c.183593.253907.371093.507813.558593.761719-.1875-.253906-.375-.507812-.558593-.761719zm3.820312 5.0625c.085938.109375.175781.214844.261719.328125-.085938-.109375-.175781-.21875-.261719-.328125zm3.59375 4.453125c.117188.140625.230469.277344.34375.417969-.113281-.140625-.230469-.28125-.34375-.417969zm4.015625 4.695313c.078125.089843.15625.175781.234375.261719-.078125-.085938-.15625-.171876-.234375-.261719zm8.21875 8.769531.074219.074219c-.023438-.023438-.046875-.046875-.074219-.074219zm54.878906 29.363281-.003906-.003906 17.4375-14.996094zm-8.503906-10.6875-16.796875-21.121093-7.785156 5.675781 7.789062-5.679688zm0 0"/></g><path d="m509.734375 297.417969c-10.078125-6.585938-19.601563-12.292969-28.808594-17.8125-9.066406-5.4375-18.441406-11.058594-28.285156-17.484375l-1.121094-59.839844c-.035156-1.988281-1.25-3.769531-3.089843-4.527344l-91.242188-37.699218c2.484375-.816407 4.789062-1.542969 7.042969-2.253907 4.453125-1.40625 9.054687-2.855469 14.976562-4.976562 1.882813-.671875 3.179688-2.402344 3.304688-4.398438l5.839843-94.914062c.132813-2.15625-1.136718-4.15625-3.148437-4.953125l-105.480469-41.875c-7.945312-3.15625-16.949218-6.7265628-26.675781-6.113282-8.84375.558594-16.71875 4.507813-23.667969 7.996094l-191.078125 95.859375c-1.835937.917969-2.921875 2.867188-2.738281 4.914063l9.332031 104.398437c.164063 1.847657 1.335938 3.449219 3.046875 4.164063l91.488282 38.394531c8.402343 3.527344 17.925781 7.523437 28.152343 7.847656.480469.015625.957031.023438 1.433594.023438 15.925781 0 29.722656-8.429688 43.359375-18.570313l3.800781 15.242188c-.15625.066406-.316406.113281-.46875.195312l-89.011719 47.109375c-.828124.4375-1.46875 1.085938-1.921874 1.835938l-77.90625-45.914063c-1.417969-.835937-2.898438-1.765625-4.46875-2.742187-7.414063-4.632813-15.816407-9.886719-24.945313-10.386719-6.484375-.359375-10.460937 2.429688-12.652344 4.824219-3.917969 4.285156-5.550781 10.996093-4.476562 18.417969 1.816406 12.5625 11.125 21.816406 19.992187 29.207031 18.828125 15.695312 40.703125 27.730469 63.988282 35.457031l-47.566407 33.4375c-1.292969.910156-2.082031 2.378906-2.121093 3.964844-.042969 1.582031.671874 3.089844 1.917968 4.066406 35.683594 27.863281 74.027344 52.800781 111.105469 76.917969 17.0625 11.09375 34.707031 22.566406 51.859375 34.179687 4.25 2.875 9.539062 6.453125 15.84375 7.375 1.113281.164063 2.210938.238282 3.300781.238282 8.523438 0 16.261719-4.601563 21.589844-7.765626 36.332031-21.589843 72.746094-44.75 108.226563-68.839843 8.773437-5.957031 17.714843-11.949219 26.359374-17.746094 25.753907-17.261719 52.382813-35.109375 77.863282-54.210937 1.402344-1.050782 2.804687-2.101563 4.203125-3.15625 17.945312-13.539063 35.871093-27.609376 53.277343-41.828126 1.234376-1.007812 1.914063-2.546874 1.828126-4.136718-.085938-1.59375-.921876-3.050782-2.257813-3.921875zm-66.875-23.585938c.082031 4.3125.164063 8.773438-1.433594 12.292969-2.011719 4.441406-6.761719 7.613281-12.304687 11.003906l-88.691406 54.289063c-3.496094 2.136719-6.785157 4.042969-9.960938 5.148437l-1.019531-99.117187 112.214843-47.480469zm-9.167969-71.347656-108.769531 46.023437c-.65625.277344-1.21875.679688-1.675781 1.167969l-102.65625-43.523437c1.378906-.878906 2.9375-1.699219 4.542968-2.515625l95.007813-48.066407zm-199.652344-76.628906c7.300782-4.175781 15.273438-7.488281 22.851563-11.0625 18.820313-8.878907 37.789063-17.480469 56.878906-25.816407l-3.617187 60.578126c-2.917969 1.355468-5.796875 2.792968-8.671875 4.246093-18.511719 9.367188-37.023438 18.734375-55.539063 28.101563-4.582031 2.320312-9.222656 4.519531-13.8125 6.800781zm138.695313 18.644531c-4.320313 1.496094-7.964844 2.644531-11.507813 3.761719-4.453124 1.402343-9.054687 2.855469-14.972656 4.976562-.839844.296875-1.53125.8125-2.074218 1.441407-5.839844-2.410157-11.675782-4.824219-17.515626-7.234376-1.769531-.734374-4.125-2.101562-6.226562-2.320312l3.613281-60.601562c17.824219-7.667969 35.742188-15.113282 53.746094-22.285157zm-138.871094-126.996094c6.394531-3.207031 13.003907-6.523437 19.816407-6.957031 7.488281-.46875 15.386718 2.664063 22.351562 5.429687l95.609375 37.957032c-4.4375 1.773437-8.871094 3.5625-13.300781 5.367187-10.433594 4.253907-20.839844 8.621094-31.234375 13.054688-5.644531-5.8125-13.617188-8.234375-20.085938-10.191407-32.183593-9.730468-64.277343-20.96875-95.5625-33.417968 7.464844-3.746094 14.925781-7.492188 22.40625-11.242188zm-99.679687 50.007813c16.074218-8.066407 32.148437-16.128907 48.222656-24.191407 5.710938-2.867187 11.40625-5.726562 17.105469-8.585937 34.136719 13.882813 69.328125 26.335937 104.609375 37.003906 4.457031 1.347657 9.023437 2.734375 12.640625 5.039063-30.03125 12.988281-59.8125 26.703125-89.132813 40.996094-.0625-.023438-.117187-.058594-.179687-.082032-38.242188-13.484375-77.378907-25.929687-116.453125-37.070312.828125-.519532 1.648437-1.054688 2.441406-1.613282 6.484375-4.574218 13.59375-7.90625 20.746094-11.496093zm-58.203125 29.199219c7.070312-3.546876 14.984375-6.375 22.539062-9.675782.515625.425782 1.121094.753906 1.804688.945313 38.421875 10.777343 76.953125 22.875 114.707031 35.976562-4.964844 2.460938-9.929688 4.921875-14.863281 7.414063-4.753907 2.402344-9.5 4.820312-14.234375 7.257812-2.152344 1.109375-11.304688 7.582032-13.375 6.945313 0 0-120.191406-37.019531-120.191406-37.019531 7.871093-3.949219 15.742187-7.894532 23.613281-11.84375zm90.917969 83.097656c-.085938 7.933594-.167969 15.867187-.25 23.800781-.109376 10.082031-.527344 20.191406-.679688 30.292969-.0625 3.910156-.070312 7.8125-.019531 11.714844-8.890625-18.753907-19.226563-36.8125-30.890625-53.972657 10.484375-10.222656 21.378906-20.238281 32.457031-29.871093.460937 5.847656-.558594 12.410156-.617187 18.035156zm-112.796876 22.542968c-.320312-6.558593-.523437-12.988281-1.9375-19.589843-1.113281-5.210938-.984374-11.03125-1.460937-16.34375-1.035156-11.609375-.804687-23.257813-1.875-34.753907l32.925781 46.222657zm35.1875-31.128906-37.476562-52.609375c1.171875.46875 2.195312.910157 2.613281 1.039063 4.90625 1.511718 9.8125 3.023437 14.71875 4.535156 13.578125 4.179688 27.152344 8.359375 40.730469 12.542969 13.003906 4.003906 26.011719 8.011719 39.019531 12.019531 3.105469.957031 9.066407 2.203125 13.308594 4.386719-11.234375 9.734375-22.289063 19.863281-32.945313 30.210937-4.015624-5.601562-8.167968-11.109375-12.464843-16.5-1.378907-1.726562-3.6875-4.621094-7.339844-5.71875-6.542969-1.960937-12.058594 2.917969-14.414063 5.003906zm-30.539062 40.371094 42.914062-37.96875c3.34375-2.960938 4.546876-3.023438 4.914063-2.917969.660156.199219 1.835937 1.671875 2.398437 2.378907 19.53125 24.488281 36.09375 51.289062 49.28125 79.699218-5.171874-1.382812-10.273437-3.742187-14.957031-5.707031-.007812-.003906-67.03125-28.128906-84.550781-35.484375zm147.925781-4.445312c-2.414062 5.921874-.875 12.085937.246094 16.589843l2.824219 11.320313c-11.085938 8.445312-22.070313 16.023437-33.625 18.363281 0 0 1.042968-98.972656 1.042968-98.972656.011719-1.199219 11.828126-6.148438 13.316407-6.914063 4.710937-2.425781 9.4375-4.832031 14.167969-7.222656 6.1875-3.128906 12.957031-5.488281 19.207031-8.570312l-1.890625 62.28125c-5.988282 3.261718-12.554688 6.433593-15.289063 13.125zm8.761719 7.679687 104.027344 44.105469 1.003906 97.777344v.011718c-2.886719-1-5.746094-2.722656-8.359375-4.3125-7.148437-4.347656-14.394531-8.835937-21.402344-13.175781-14.171875-8.78125-28.828125-17.859375-43.539062-26.308594-7.007813-4.023437-8.890625-5.105469-10.769531-12.320312-2.132813-8.175781-4.1875-16.542969-6.171876-24.632813-1.015624-4.132812-2.03125-8.261718-3.0625-12.386718l-10.539062-42.269532c-.585938-2.355468-1.074219-4.539062-1.1875-6.488281zm-188.71875 80.875c-7.410156-6.175781-15.167969-13.734375-16.5-22.953125-.625-4.3125.128906-8.234375 1.960938-10.234375.644531-.703125 1.761718-1.605469 4.160156-1.605469.183594 0 .371094.003906.566406.015625 6.558594.359375 13.804688 4.886719 20.195312 8.878907 1.625 1.015624 3.15625 1.976562 4.6875 2.875l244.46875 144.074218c-29.214843 5.933594-59.667968 5.785156-88.804687-.507812-22.691406-4.898438-38.117187-13.074219-47.160156-24.984375-10.355469-13.636719-12.453125-32.199219-14.300781-48.578125-.269532-2.382813-2.195313-4.234375-4.582032-4.421875-38.132812-2.953125-75.3125-18.066407-104.691406-42.558594zm424.144531 43.617187c-1.390625 1.046876-2.78125 2.097657-4.175781 3.140626-25.269531 18.941406-51.789062 36.71875-77.4375 53.90625-8.65625 5.804687-17.609375 11.804687-26.40625 17.777343-35.316406 23.980469-71.554688 47.03125-107.722656 68.515625-6.339844 3.769532-12.511719 7.082032-18.328125 6.230469-4.046875-.589844-7.933594-3.21875-11.6875-5.761719-17.230469-11.664062-34.914063-23.164062-52.011719-34.28125-35.050781-22.796875-71.234375-46.328125-105.0625-72.285156l47.34375-33.277344c.363281-.253906.660156-.554687.933594-.878906 9.910156 2.605469 20.019531 4.449219 30.207031 5.460938 1.867187 16 4.746094 34.863281 15.8125 49.441406 10.546875 13.894531 27.886719 23.285156 53.011719 28.710937 15.65625 3.378907 31.671875 5.066407 47.691406 5.066407 19.480469 0 38.964844-2.496094 57.792969-7.46875 1.953125-.515626 3.402343-2.148438 3.675781-4.148438.277344-2-.675781-3.96875-2.414062-4.992188l-167.929688-98.96875 84.492188-44.714843c.621093 2.523437 1.246093 5.042969 1.867187 7.566406 1.996094 8.121094 4.058594 16.523437 6.207031 24.769531 2.808594 10.769532 7.234375 13.738282 15.464844 18.46875 14.566406 8.367188 29.152344 17.402344 43.257812 26.140625 7.023438 4.351563 14.289063 8.851563 21.46875 13.21875 4.429688 2.691407 9.941407 6.042969 16.378907 6.558594.59375.046875 1.183593.070313 1.765625.070313 8.109375 0 15.269531-4.378907 20.589844-7.640626l88.695312-54.285156c5.378906-3.292968 12.75-7.804687 16.191406-15.40625 2.441406-5.382812 2.417969-11.269531 2.332032-16.097656 7.921874 5.03125 15.523437 9.59375 22.917968 14.027344 7.339844 4.398437 14.878906 8.921875 22.710938 13.890625-15.621094 12.65625-31.617188 25.167969-47.632813 37.246093zm0 0"/></svg>